# xmcd
#
# Track frame offsets:
#	150
#	15162
#	30355
#	46485
#	64399
#	80420
#	98028
#	122231
#	140218
#	157765
#	171998
#	186275
#	204482
#
# Disc length: 3051 seconds
#
# Revision: 1
# Processed by: cddbd v1.5.2PL0 Copyright (c) Steve Scherf et al.
# Submitted via: audiograbber 1.83.01
#
DISCID=aa0be90d
DTITLE=Johanna Hemara - Starting Over
DYEAR=2010
DGENRE=Country
TTITLE0=Beautiful Maybe
TTITLE1=Every River She Crosses
TTITLE2=Big Girl Now
TTITLE3=Like A Kiss
TTITLE4=Sugar In The Rain
TTITLE5=Open Up Your Wings
TTITLE6=The Flame
TTITLE7=Starting Over
TTITLE8=Make A World
TTITLE9=I Will Be The Strength In You
TTITLE10=Goodbye
TTITLE11=Daddy
TTITLE12=The Flame (Alternate Mix)
EXTD=Spelling Mistake in name corrected
EXTT0=
EXTT1=
EXTT2=
EXTT3=
EXTT4=
EXTT5=
EXTT6=
EXTT7=
EXTT8=
EXTT9=
EXTT10=
EXTT11=
EXTT12=
PLAYORDER=
